<svg width="101" height="49" viewBox="0 0 101 49" fill="none" xmlns="http://www.w3.org/2000/svg">
<path d="M1.50552 1.08155C0.553237 1.80651 -0.148445 3.63466 0.0269757 4.86393C0.277576 6.31384 8.62257 27.3691 9.24907 28.094C10.3768 29.3548 10.9532 29.4494 19.4485 29.4494C26.766 29.4494 27.7434 29.5124 28.4952 30.0167C29.6479 30.7417 30.2995 31.9394 30.4499 33.5785C30.5501 34.8393 30.3496 35.5642 27.9188 41.6791C26.4403 45.3669 25.3126 48.5504 25.3877 48.708C25.5882 49.1177 41.4262 49.0862 42.604 48.6765C44.3582 48.0461 44.9596 47.069 47.7914 39.914L50.4728 33.1687L53.1292 39.914C55.9359 47.069 56.5123 48.0461 58.2916 48.6765C58.8429 48.8656 62.5267 48.9917 67.3132 48.9917C73.904 48.9917 75.4326 48.8971 75.5329 48.5504C75.6081 48.3297 74.4553 45.1147 73.0018 41.3954C70.6211 35.4066 70.3455 34.5241 70.4457 33.4209C70.6211 31.8764 71.2727 30.7102 72.4004 30.0167C73.1522 29.5124 74.1295 29.4494 81.447 29.4494C89.9424 29.4494 90.5438 29.3548 91.6465 28.094C92.4985 27.0854 100.944 5.68344 100.944 4.51721C100.944 3.19338 100.317 1.77499 99.365 1.08155C98.6132 0.482677 98.0368 0.451157 88.2383 0.451157C81.5473 0.451157 77.663 0.577236 77.2119 0.797874C75.8085 1.45979 75.0567 2.87818 71.4732 11.8298C68.3406 19.7098 67.7893 20.9075 67.1127 21.2542C66.5113 21.5694 66.2105 21.5694 65.584 21.2542C64.9575 20.9075 64.5566 20.151 63.1783 16.7154C61.4742 12.3972 60.9229 11.3885 59.7952 10.6636C58.8178 10.0332 42.4286 10.0017 41.2006 10.6636C40.0729 11.2625 39.3712 12.5232 37.6421 16.936C36.5395 19.7413 36.0132 20.7814 35.4619 21.1282C34.685 21.6325 33.9332 21.4749 33.1814 20.6554C32.9308 20.3717 31.1766 16.2426 29.272 11.4831C25.8388 2.87818 25.1121 1.45979 23.6837 0.797874C23.2326 0.577236 19.3483 0.451157 12.6572 0.451157C2.73346 0.451157 2.30744 0.482677 1.50552 1.08155Z" fill="white"/>
<path d="M85.8356 41.0171C85.7353 41.1116 85.6602 42.9083 85.6602 44.9571C85.6602 48.4558 85.6852 48.6764 86.1614 48.6764C86.6124 48.6764 86.6626 48.4242 86.7127 45.7766L86.7879 42.8452L88.1662 45.7766C89.2437 48.0775 89.6447 48.6764 90.0958 48.6764C90.6722 48.6764 90.6722 48.6134 90.6722 44.7364C90.6722 41.0171 90.6471 40.7964 90.171 40.7964C89.7449 40.7964 89.6698 41.0486 89.6196 43.6647L89.5445 46.5015L88.1912 43.6647C86.9382 40.9856 86.3618 40.3236 85.8356 41.0171Z" fill="white"/>
<path d="M91.4239 41.0485C91.4239 41.1746 91.5742 41.5529 91.7496 41.8996C91.9251 42.2463 92.326 43.0343 92.6267 43.6647L93.153 44.7679L92.5766 45.8711C90.9978 48.8339 91.048 48.6763 91.7246 48.6763C92.1757 48.6763 92.4513 48.3296 92.9275 47.2579C93.2783 46.47 93.6041 45.8396 93.6793 45.8396C93.7544 45.8396 94.1303 46.47 94.5062 47.2579C94.9573 48.1405 95.4084 48.6763 95.7091 48.6763C96.3607 48.6763 96.3106 48.4557 95.3082 46.5645C94.832 45.6504 94.4311 44.7994 94.4311 44.6733C94.4311 44.5157 94.832 43.6647 95.3082 42.7821C96.3356 40.8594 96.3356 40.7964 95.7091 40.7964C95.4335 40.7964 94.9323 41.3637 94.4812 42.2778L93.7294 43.7277L93.0026 42.2778C92.6017 41.4268 92.1255 40.7964 91.8749 40.7964C91.6243 40.7964 91.4239 40.8909 91.4239 41.0485Z" fill="white"/>
</svg>
